<svg xmlns="http://www.w3.org/2000/svg" id="Layer_1" enable-background="new 0 0 511.931 511.931" height="512" viewBox="0 0 511.931 511.931" width="512"><g><path d="m507.966 76.507-15.353-8.002 12.02-6.654c8.211-4.546 1.321-17.874-7.266-13.123l-12.43 6.881 1.042-17.859c.34-5.829-6.11-9.841-11.188-6.96l-67.417 38.248c-1.661.943-2.9 2.484-3.465 4.31l-8.484 27.461c-37.888-60.326-105.029-100.519-181.395-100.519-42.99 0-84.486 12.75-120.001 36.874-7.764 5.273.311 17.923 8.428 12.408 33.019-22.428 71.601-34.282 111.573-34.282 72.09 0 135.349 38.51 170.274 96.028l-35.406 19.6c-27.989-45.108-77.973-75.216-134.868-75.216-87.448 0-158.593 71.114-158.593 158.526 0 87.411 71.145 158.525 158.593 158.525s158.593-71.114 158.593-158.525c0-25.195-5.921-49.03-16.428-70.204l35.401-19.597c13.719 26.993 21.464 57.509 21.464 89.802 0 108.351-90.69 198.938-199.029 198.938-109.747-.001-199.031-89.245-199.031-198.939 0-52.889 20.623-102.715 58.069-140.302 6.623-6.649-3.701-17.539-10.627-10.587-40.266 40.418-62.442 94.004-62.442 150.889 0 67.362 31.318 127.541 80.153 166.785l-40.85 92.338c-14.109 31.888 36.255 55.229 50.764 22.443l37.914-85.702c26.347 11.61 55.456 18.074 86.05 18.074 31.578 0 61.578-6.877 88.587-19.203l38.415 86.83c14.503 32.788 64.872 9.444 50.764-22.443l-41.649-94.143c47.556-39.272 77.913-98.648 77.913-164.979 0-33.913-7.948-66.001-22.06-94.521l28.882 8.868c2.012.599 3.979.384 5.902-.646l67.417-38.248c5.078-2.882 4.942-10.475-.236-13.174zm-150.343 137.721c0 79.14-64.415 143.525-143.593 143.525s-143.592-64.385-143.592-143.525c0-79.141 64.415-143.526 143.593-143.526 51.256 0 96.318 26.988 121.731 67.488l-35.433 19.615c-18.447-28.096-50.238-46.691-86.298-46.691-56.881 0-103.156 46.256-103.156 103.113 0 56.856 46.275 103.112 103.156 103.112 22.613 0 44.1-7.212 62.136-20.856 7.485-5.663-1.222-17.879-9.051-11.963-15.409 11.658-33.766 17.819-53.085 17.819-48.609 0-88.156-39.527-88.156-88.112 0-48.586 39.547-88.113 88.156-88.113 30.42 0 57.29 15.481 73.14 38.974l-35.621 19.719c-8.744-11.119-22.306-18.281-37.519-18.281-26.313 0-47.719 21.398-47.719 47.701 0 26.302 21.406 47.7 47.719 47.7 26.312 0 47.718-21.398 47.718-47.7 0-5.732-1.018-11.23-2.88-16.326l35.603-19.709c4.955 11.006 7.715 23.204 7.715 36.035 0 15.017-3.87 29.858-11.192 42.919-4.59 8.187 8.286 15.895 13.084 7.335 8.575-15.297 13.108-32.674 13.108-50.254 0-15.464-3.43-30.14-9.558-43.318l35.434-19.615c9.318 19.014 14.56 40.372 14.56 62.934zm-150.649 3.829c1.911 3.451 6.753 4.834 10.194 2.929l28.331-15.684c.807 2.839 1.249 5.831 1.249 8.925 0 18.031-14.677 32.7-32.718 32.7s-32.719-14.669-32.719-32.7 14.678-32.701 32.719-32.701c9.56 0 18.174 4.12 24.161 10.676l-28.289 15.66c-3.623 2.007-4.934 6.571-2.928 10.195zm-130.624 271.667c-6.531 14.754-29.566 3.792-23.33-10.305l39.463-89.203c7.036 4.87 14.375 9.329 21.986 13.344zm301.729-10.305c6.168 13.945-16.711 25.266-23.33 10.306l-38.696-87.467c7.57-4.12 14.865-8.683 21.849-13.655zm58.115-366.132-26.419-8.112 7.587-24.558 52.839-29.978-1.024 17.574c-.172 2.948 1.402 5.723 4.021 7.087l15.61 8.136z" fill="#060606"/></g></svg>