<svg xmlns="http://www.w3.org/2000/svg" id="Layer_1" enable-background="new 0 0 512.167 512.167" height="512" viewBox="0 0 512.167 512.167" width="512"><g><path d="m481.956 113.036c-3.725-5.777-12.92-3.664-13.749 3.16-.027.225-2.259 17.23-15.231 33.002 2.114-18.814 1.067-47.505-14.568-80.814-29.037-61.864-81.806-68.107-84.038-68.343-6.433-.661-10.652 6.923-6.719 12.048 1.213 1.581 29.263 39.202-9.41 80.878-15.732 16.953-36.464 43.913-45.892 76.08-9.445 32.228-5.293 61.643 12.323 87.468-18.275 16.122-39.31 37.004-49.737 59.921-1.638 3.461-2.38 7.312-2.497 11.295l-239.033 134.676c-28.77 16.208-5.598 61.19 24.33 47.049l248.265-117.311c3.472 2.312 7.217 4.005 11.174 4.677 15.01 2.785 32.046 1.229 47.152-.67 44.567-5.569 123.79-25.94 141.018-75.75 6.029-15.631 5.382-33.119-1.884-52.61 16.678-17.543 26.125-37.716 28.072-60.027 2.492-28.554-7.458-60.426-29.576-94.729zm-151.109 141.509c8.418 28.483 26.663 72.89 64.954 114.388-10.929 3.671-22.295 6.71-33.593 9.01-30.218-30.752-55.241-62.667-71.965-85.682 11.619-13.325 25.684-26.391 40.604-37.716zm19.892-13.714c5.76-3.569 11.683-6.821 17.742-9.85 18.125 25.642 52.191 66.217 99.797 90.46-11.918 20.823-35.69 33.019-57.214 41.825-41.66-43.129-59.746-90.443-67.259-117.969 2.285-1.531 4.596-3.02 6.934-4.466zm122.874 66.457c-43.44-22.671-75.296-60.713-91.003-82.365 14.409-5.242 30.592-7.966 45.334-2.344 13.678 5.217 25.266 17.304 35.426 36.952 9.568 18.501 12.928 34.157 10.243 47.757zm-442.286 188.605c-12.969 6.129-23.057-13.378-10.559-20.418l233.791-131.723c3.565 13.363 10.626 26.855 19.533 37.428zm260.684-118.004c-5.157-4.223-11.115-11.51-16.324-21.515-5.103-9.8-7.623-18.642-8.14-25.106-.797-9.95 7.358-19.535 12.921-26.958 15.584 21.232 37.554 49.074 63.807 76.665-14.081 1.883-39.879 7.057-52.264-3.086zm184.755-125.106c-.024-.047-.047-.094-.072-.142-25.963-50.206-64.827-61.04-118.813-33.124-14.758 7.632-28.658 16.975-41.648 27.307-14.253-21.661-17.453-46.389-9.49-73.559 8.605-29.362 27.857-54.325 42.492-70.096 24.691-26.608 26.247-52.416 23.204-69.38-.973-5.428-2.467-10.302-4.1-14.489 25.628 10.013 44.942 30.857 56.489 55.456 24.431 52.048 9.127 91.883 8.979 92.256-2.678 6.605 4.916 12.961 10.947 9.164 18.665-11.752 28.378-28.012 33.353-40.361 25.502 46.412 25.043 85.659-1.341 116.968z" fill="#060606"/></g></svg>